<?xml version="1.0" standalone="no"?>
<!DOCTYPE svg PUBLIC "-//W3C//DTD SVG 20010904//EN"
 "http://www.w3.org/TR/2001/REC-SVG-20010904/DTD/svg10.dtd">
<svg version="1.0" xmlns="http://www.w3.org/2000/svg"
 width="225.000000pt" height="225.000000pt" viewBox="0 0 225.000000 225.000000"
 preserveAspectRatio="xMidYMid meet">
<metadata>
Created by potrace 1.11, written by Peter Selinger 2001-2013
</metadata>
<g transform="translate(0.000000,225.000000) scale(0.100000,-0.100000)"
fill="#000000" stroke="none">
<path d="M440 1356 l0 -689 183 6 c212 8 288 -1 370 -42 l57 -30 0 654 0 653
-52 34 c-108 70 -186 89 -396 97 l-162 6 0 -689z"/>
<path d="M1645 2040 c-207 -10 -286 -29 -392 -98 l-53 -34 0 -653 0 -654 58
30 c81 41 157 50 369 42 l183 -6 0 691 c0 381 -1 691 -2 690 -2 0 -75 -4 -163
-8z"/>
<path d="M151 1784 c-21 -26 -21 -34 -21 -736 l0 -710 29 -29 29 -29 336 0
335 0 82 -56 c165 -113 203 -113 368 0 l82 56 335 0 336 0 29 29 29 29 0 710
c0 702 0 710 -21 736 -18 23 -28 26 -80 26 l-59 0 0 -605 c0 -661 1 -651 -57
-673 -16 -6 -136 -13 -278 -15 -287 -5 -311 -10 -370 -82 -76 -93 -171 -95
-255 -4 -73 78 -88 81 -375 86 -143 3 -262 9 -278 15 -58 22 -57 12 -57 673
l0 605 -59 0 c-52 0 -62 -3 -80 -26z"/>
</g>
</svg>
